 <svg
      xmlns="http://www.w3.org/2000/svg"
      xmlns:xlink="http://www.w3.org/1999/xlink"
      width="500"
      zoomAndPan="magnify"
      viewBox="0 0 375 374.999991"
      height="500"
      preserveAspectRatio="xMidYMid meet"
      version="1.0"
    >
      <defs>
        <g />
        <clipPath id="86fc1a7258">
          <path
            d="M 13.007812 138.753906 L 361.992188 138.753906 L 361.992188 183.164062 L 13.007812 183.164062 Z M 13.007812 138.753906 "
            clip-rule="nonzero"
          />
        </clipPath>
      </defs>
      <g fill="#231f20" fill-opacity="1">
        <g transform="translate(29.611978, 247.176912)">
          <g>
            <path d="M 14.945312 0 L 72.800781 0 C 130.660156 0 165.886719 -29.890625 165.886719 -85.398438 C 165.886719 -143.253906 129.589844 -170.796875 72.800781 -170.796875 L 14.945312 -170.796875 C 16.652344 -154.570312 17.292969 -144.964844 17.292969 -125.109375 L 17.292969 -45.6875 C 17.292969 -25.832031 16.652344 -16.226562 14.945312 0 Z M 71.519531 -4.484375 L 53.160156 -4.484375 L 53.160156 -166.3125 L 71.519531 -166.3125 C 104.613281 -166.3125 127.03125 -140.90625 127.03125 -85.398438 C 127.03125 -32.023438 104.613281 -4.484375 71.519531 -4.484375 Z M 71.519531 -4.484375 " />
          </g>
        </g>
      </g>
      <g fill="#231f20" fill-opacity="1">
        <g transform="translate(197.626399, 247.176912)">
          <g>
            <path d="M 8.539062 -49.53125 C 27.328125 -9.820312 53.160156 4.269531 87.320312 4.269531 C 115.289062 4.269531 139.199219 -10.035156 139.199219 -40.351562 C 139.199219 -69.171875 119.128906 -83.050781 78.78125 -109.949219 C 48.035156 -130.230469 38.644531 -136.851562 38.644531 -150.300781 C 38.644531 -161.828125 48.675781 -170.582031 65.542969 -170.582031 C 93.296875 -170.582031 104.1875 -146.882812 110.378906 -123.398438 L 135.570312 -133.863281 C 116.355469 -163.109375 94.792969 -175.066406 67.679688 -175.066406 C 40.5625 -175.066406 18.574219 -162.257812 18.574219 -137.277344 C 18.574219 -114.21875 32.664062 -102.476562 67.464844 -78.78125 C 101.835938 -54.65625 119.34375 -43.339844 119.34375 -26.902344 C 119.34375 -10.035156 107.816406 -0.214844 89.882812 -0.214844 C 61.273438 -0.214844 40.777344 -27.328125 33.945312 -63.621094 Z M 8.539062 -49.53125 " />
          </g>
        </g>
      </g>
      <g clip-path="url(#86fc1a7258)">
        <path
          fill="#fdfdfd"
          d="M 13.007812 138.753906 L 362.035156 138.753906 L 362.035156 183.164062 L 13.007812 183.164062 Z M 13.007812 138.753906 "
          fill-opacity="1"
          fill-rule="nonzero"
        />
      </g>
      <g fill="#004aad" fill-opacity="1">
        <g transform="translate(37.79588, 163.899924)">
          <g>
            <path d="M 1.375 -10.46875 L 5.671875 -10.46875 C 7.234375 -10.46875 8.523438 -9.972656 9.546875 -8.984375 C 10.566406 -7.992188 11.078125 -6.738281 11.078125 -5.21875 C 11.078125 -3.707031 10.5625 -2.457031 9.53125 -1.46875 C 8.507812 -0.488281 7.207031 0 5.625 0 L 1.375 0 Z M 3.140625 -8.875 L 3.140625 -1.578125 L 5.71875 -1.578125 C 6.738281 -1.578125 7.585938 -1.921875 8.265625 -2.609375 C 8.953125 -3.296875 9.296875 -4.164062 9.296875 -5.21875 C 9.296875 -6.269531 8.941406 -7.140625 8.234375 -7.828125 C 7.535156 -8.523438 6.671875 -8.875 5.640625 -8.875 Z M 3.140625 -8.875 " />
          </g>
        </g>
      </g>
      <g fill="#004aad" fill-opacity="1">
        <g transform="translate(61.333858, 163.899924)">
          <g>
            <path d="M 10.453125 0 L 8.6875 0 L 8.6875 -4.34375 L 3.140625 -4.34375 L 3.140625 0 L 1.375 0 L 1.375 -10.46875 L 3.140625 -10.46875 L 3.140625 -5.921875 L 8.6875 -5.921875 L 8.6875 -10.46875 L 10.453125 -10.46875 Z M 10.453125 0 " />
          </g>
        </g>
      </g>
      <g fill="#004aad" fill-opacity="1">
        <g transform="translate(85.110786, 163.899924)">
          <g>
            <path d="M 8.859375 -8.875 L 3.140625 -8.875 L 3.140625 -6.0625 L 8.25 -6.0625 L 8.25 -4.46875 L 3.140625 -4.46875 L 3.140625 -1.578125 L 9.03125 -1.578125 L 9.03125 0 L 1.375 0 L 1.375 -10.46875 L 8.859375 -10.46875 Z M 8.859375 -8.875 " />
          </g>
        </g>
      </g>
      <g fill="#004aad" fill-opacity="1">
        <g transform="translate(106.871571, 163.899924)">
          <g>
            <path d="M 8.859375 -8.875 L 3.140625 -8.875 L 3.140625 -6.0625 L 8.25 -6.0625 L 8.25 -4.46875 L 3.140625 -4.46875 L 3.140625 -1.578125 L 9.03125 -1.578125 L 9.03125 0 L 1.375 0 L 1.375 -10.46875 L 8.859375 -10.46875 Z M 8.859375 -8.875 " />
          </g>
        </g>
      </g>
      <g fill="#004aad" fill-opacity="1">
        <g transform="translate(128.632349, 163.899924)">
          <g>
            <path d="M 8.015625 0 L 6.09375 -3.171875 C 6 -3.160156 5.84375 -3.15625 5.625 -3.15625 L 3.140625 -3.15625 L 3.140625 0 L 1.375 0 L 1.375 -10.46875 L 5.625 -10.46875 C 6.957031 -10.46875 7.992188 -10.15625 8.734375 -9.53125 C 9.472656 -8.90625 9.84375 -8.023438 9.84375 -6.890625 C 9.84375 -6.054688 9.65625 -5.347656 9.28125 -4.765625 C 8.90625 -4.191406 8.367188 -3.769531 7.671875 -3.5 L 10.015625 0 Z M 3.140625 -4.734375 L 5.625 -4.734375 C 7.320312 -4.734375 8.171875 -5.4375 8.171875 -6.84375 C 8.171875 -8.195312 7.320312 -8.875 5.625 -8.875 L 3.140625 -8.875 Z M 3.140625 -4.734375 " />
          </g>
        </g>
      </g>
      <g fill="#004aad" fill-opacity="1">
        <g transform="translate(151.393729, 163.899924)">
          <g>
            <path d="M 8.140625 -2.359375 L 2.859375 -2.359375 L 1.859375 0 L 0.015625 0 L 4.640625 -10.46875 L 6.4375 -10.46875 L 11.015625 0 L 9.140625 0 Z M 7.46875 -3.9375 L 5.484375 -8.578125 L 3.515625 -3.9375 Z M 7.46875 -3.9375 " />
          </g>
        </g>
      </g>
      <g fill="#004aad" fill-opacity="1">
        <g transform="translate(174.379129, 163.899924)">
          <g>
            <path d="M 6.3125 -10.46875 L 6.3125 -3.234375 C 6.3125 -2.179688 6.019531 -1.363281 5.4375 -0.78125 C 4.863281 -0.207031 4.066406 0.078125 3.046875 0.078125 C 1.816406 0.078125 0.789062 -0.425781 -0.03125 -1.4375 L 0.8125 -2.78125 C 1.519531 -2.007812 2.257812 -1.625 3.03125 -1.625 C 3.507812 -1.625 3.878906 -1.765625 4.140625 -2.046875 C 4.398438 -2.335938 4.53125 -2.753906 4.53125 -3.296875 L 4.53125 -8.875 L 0.90625 -8.875 L 0.90625 -10.46875 Z M 6.3125 -10.46875 " />
          </g>
        </g>
      </g>
      <g fill="#004aad" fill-opacity="1">
        <g transform="translate(193.795209, 163.899924)">
          <g />
        </g>
      </g>
      <g fill="#004aad" fill-opacity="1">
        <g transform="translate(209.612107, 163.899924)">
          <g>
            <path d="M 4.8125 -10.546875 C 6.164062 -10.546875 7.390625 -10.1875 8.484375 -9.46875 L 7.75 -7.90625 C 6.675781 -8.550781 5.65625 -8.875 4.6875 -8.875 C 4.15625 -8.875 3.734375 -8.78125 3.421875 -8.59375 C 3.117188 -8.40625 2.96875 -8.132812 2.96875 -7.78125 C 2.96875 -7.4375 3.109375 -7.140625 3.390625 -6.890625 C 3.671875 -6.648438 4.019531 -6.472656 4.4375 -6.359375 C 4.851562 -6.242188 5.304688 -6.097656 5.796875 -5.921875 C 6.285156 -5.753906 6.738281 -5.570312 7.15625 -5.375 C 7.582031 -5.175781 7.929688 -4.867188 8.203125 -4.453125 C 8.472656 -4.046875 8.609375 -3.546875 8.609375 -2.953125 C 8.609375 -2.035156 8.242188 -1.300781 7.515625 -0.75 C 6.785156 -0.207031 5.835938 0.0625 4.671875 0.0625 C 3.867188 0.0625 3.09375 -0.0859375 2.34375 -0.390625 C 1.59375 -0.691406 0.941406 -1.09375 0.390625 -1.59375 L 1.15625 -3.125 C 1.675781 -2.632812 2.253906 -2.253906 2.890625 -1.984375 C 3.523438 -1.722656 4.125 -1.59375 4.6875 -1.59375 C 5.3125 -1.59375 5.796875 -1.703125 6.140625 -1.921875 C 6.484375 -2.148438 6.65625 -2.46875 6.65625 -2.875 C 6.65625 -3.226562 6.515625 -3.523438 6.234375 -3.765625 C 5.953125 -4.015625 5.601562 -4.195312 5.1875 -4.3125 C 4.769531 -4.425781 4.316406 -4.566406 3.828125 -4.734375 C 3.335938 -4.898438 2.882812 -5.070312 2.46875 -5.25 C 2.050781 -5.4375 1.703125 -5.734375 1.421875 -6.140625 C 1.140625 -6.554688 1 -7.050781 1 -7.625 C 1 -8.507812 1.347656 -9.21875 2.046875 -9.75 C 2.742188 -10.28125 3.664062 -10.546875 4.8125 -10.546875 Z M 4.8125 -10.546875 " />
          </g>
        </g>
      </g>
      <g fill="#004aad" fill-opacity="1">
        <g transform="translate(230.865113, 163.899924)">
          <g>
            <path d="M 10.453125 0 L 8.6875 0 L 8.6875 -4.34375 L 3.140625 -4.34375 L 3.140625 0 L 1.375 0 L 1.375 -10.46875 L 3.140625 -10.46875 L 3.140625 -5.921875 L 8.6875 -5.921875 L 8.6875 -10.46875 L 10.453125 -10.46875 Z M 10.453125 0 " />
          </g>
        </g>
      </g>
      <g fill="#004aad" fill-opacity="1">
        <g transform="translate(254.642038, 163.899924)">
          <g>
            <path d="M 8.140625 -2.359375 L 2.859375 -2.359375 L 1.859375 0 L 0.015625 0 L 4.640625 -10.46875 L 6.4375 -10.46875 L 11.015625 0 L 9.140625 0 Z M 7.46875 -3.9375 L 5.484375 -8.578125 L 3.515625 -3.9375 Z M 7.46875 -3.9375 " />
          </g>
        </g>
      </g>
      <g fill="#004aad" fill-opacity="1">
        <g transform="translate(277.627452, 163.899924)">
          <g>
            <path d="M 8.015625 0 L 6.09375 -3.171875 C 6 -3.160156 5.84375 -3.15625 5.625 -3.15625 L 3.140625 -3.15625 L 3.140625 0 L 1.375 0 L 1.375 -10.46875 L 5.625 -10.46875 C 6.957031 -10.46875 7.992188 -10.15625 8.734375 -9.53125 C 9.472656 -8.90625 9.84375 -8.023438 9.84375 -6.890625 C 9.84375 -6.054688 9.65625 -5.347656 9.28125 -4.765625 C 8.90625 -4.191406 8.367188 -3.769531 7.671875 -3.5 L 10.015625 0 Z M 3.140625 -4.734375 L 5.625 -4.734375 C 7.320312 -4.734375 8.171875 -5.4375 8.171875 -6.84375 C 8.171875 -8.195312 7.320312 -8.875 5.625 -8.875 L 3.140625 -8.875 Z M 3.140625 -4.734375 " />
          </g>
        </g>
      </g>
      <g fill="#004aad" fill-opacity="1">
        <g transform="translate(300.388832, 163.899924)">
          <g>
            <path d="M 12.4375 0 L 10.8125 0 L 10.796875 -7.828125 L 7.484375 -1.09375 L 6.34375 -1.09375 L 3.03125 -7.828125 L 3.03125 0 L 1.375 0 L 1.375 -10.46875 L 3.46875 -10.46875 L 6.921875 -3.515625 L 10.359375 -10.46875 L 12.4375 -10.46875 Z M 12.4375 0 " />
          </g>
        </g>
      </g>
      <g fill="#004aad" fill-opacity="1">
        <g transform="translate(326.16696, 163.899924)">
          <g>
            <path d="M 8.140625 -2.359375 L 2.859375 -2.359375 L 1.859375 0 L 0.015625 0 L 4.640625 -10.46875 L 6.4375 -10.46875 L 11.015625 0 L 9.140625 0 Z M 7.46875 -3.9375 L 5.484375 -8.578125 L 3.515625 -3.9375 Z M 7.46875 -3.9375 " />
          </g>
        </g>
      </g>
    </svg>