<svg xmlns="http://www.w3.org/2000/svg" xmlns:xlink="http://www.w3.org/1999/xlink" width="480" zoomAndPan="magnify" viewBox="0 0 360 215.999996" height="288" preserveAspectRatio="xMidYMid meet" version="1.0"><defs><g/><clipPath id="a745ecb4ff"><path d="M 5.738281 84.734375 L 354.261719 84.734375 L 354.261719 126.199219 L 5.738281 126.199219 Z M 5.738281 84.734375 " clip-rule="nonzero"/></clipPath></defs><g fill="#231f20" fill-opacity="1"><g transform="translate(27.597656, 185.812278)"><g><path d="M 13.953125 0 L 67.972656 0 C 121.992188 0 154.882812 -27.90625 154.882812 -79.734375 C 154.882812 -133.753906 120.996094 -159.46875 67.972656 -159.46875 L 13.953125 -159.46875 C 15.546875 -144.320312 16.144531 -135.347656 16.144531 -116.808594 L 16.144531 -42.65625 C 16.144531 -24.121094 15.546875 -15.148438 13.953125 0 Z M 66.777344 -4.1875 L 49.632812 -4.1875 L 49.632812 -155.28125 L 66.777344 -155.28125 C 97.675781 -155.28125 118.605469 -131.5625 118.605469 -79.734375 C 118.605469 -29.898438 97.675781 -4.1875 66.777344 -4.1875 Z M 66.777344 -4.1875 "/></g></g></g><g fill="#231f20" fill-opacity="1"><g transform="translate(194.440715, 185.812278)"><g><path d="M 7.972656 -46.246094 C 25.515625 -9.167969 49.632812 3.988281 81.527344 3.988281 C 107.640625 3.988281 129.964844 -9.367188 129.964844 -37.675781 C 129.964844 -64.585938 111.230469 -77.542969 73.554688 -102.65625 C 44.851562 -121.59375 36.078125 -127.773438 36.078125 -140.332031 C 36.078125 -151.097656 45.449219 -159.269531 61.195312 -159.269531 C 87.109375 -159.269531 97.277344 -137.140625 103.054688 -115.214844 L 126.578125 -124.984375 C 108.636719 -152.292969 88.503906 -163.453125 63.1875 -163.453125 C 37.875 -163.453125 17.34375 -151.496094 17.34375 -128.171875 C 17.34375 -106.644531 30.5 -95.679688 62.988281 -73.554688 C 95.082031 -51.03125 111.429688 -40.464844 111.429688 -25.117188 C 111.429688 -9.367188 100.664062 -0.199219 83.921875 -0.199219 C 57.210938 -0.199219 38.074219 -25.515625 31.695312 -59.402344 Z M 7.972656 -46.246094 "/></g></g></g><g clip-path="url(#a745ecb4ff)"><path fill="#fdfdfd" d="M 5.738281 84.734375 L 354.292969 84.734375 L 354.292969 126.199219 L 5.738281 126.199219 Z M 5.738281 84.734375 " fill-opacity="1" fill-rule="nonzero"/></g><g fill="#004aad" fill-opacity="1"><g transform="translate(40.226074, 108.213358)"><g><path d="M 1.28125 -9.765625 L 5.28125 -9.765625 C 6.75 -9.765625 7.957031 -9.300781 8.90625 -8.375 C 9.863281 -7.457031 10.34375 -6.289062 10.34375 -4.875 C 10.34375 -3.46875 9.863281 -2.300781 8.90625 -1.375 C 7.945312 -0.457031 6.726562 0 5.25 0 L 1.28125 0 Z M 2.9375 -8.28125 L 2.9375 -1.484375 L 5.328125 -1.484375 C 6.285156 -1.484375 7.082031 -1.800781 7.71875 -2.4375 C 8.351562 -3.070312 8.671875 -3.878906 8.671875 -4.859375 C 8.671875 -5.847656 8.34375 -6.664062 7.6875 -7.3125 C 7.039062 -7.957031 6.234375 -8.28125 5.265625 -8.28125 Z M 2.9375 -8.28125 "/></g></g></g><g fill="#004aad" fill-opacity="1"><g transform="translate(62.203025, 108.213358)"><g><path d="M 9.75 0 L 8.109375 0 L 8.109375 -4.046875 L 2.9375 -4.046875 L 2.9375 0 L 1.28125 0 L 1.28125 -9.765625 L 2.9375 -9.765625 L 2.9375 -5.53125 L 8.109375 -5.53125 L 8.109375 -9.765625 L 9.75 -9.765625 Z M 9.75 0 "/></g></g></g><g fill="#004aad" fill-opacity="1"><g transform="translate(84.40308, 108.213358)"><g><path d="M 8.265625 -8.28125 L 2.9375 -8.28125 L 2.9375 -5.65625 L 7.703125 -5.65625 L 7.703125 -4.171875 L 2.9375 -4.171875 L 2.9375 -1.484375 L 8.421875 -1.484375 L 8.421875 0 L 1.28125 0 L 1.28125 -9.765625 L 8.265625 -9.765625 Z M 8.265625 -8.28125 "/></g></g></g><g fill="#004aad" fill-opacity="1"><g transform="translate(104.720701, 108.213358)"><g><path d="M 8.265625 -8.28125 L 2.9375 -8.28125 L 2.9375 -5.65625 L 7.703125 -5.65625 L 7.703125 -4.171875 L 2.9375 -4.171875 L 2.9375 -1.484375 L 8.421875 -1.484375 L 8.421875 0 L 1.28125 0 L 1.28125 -9.765625 L 8.265625 -9.765625 Z M 8.265625 -8.28125 "/></g></g></g><g fill="#004aad" fill-opacity="1"><g transform="translate(125.038317, 108.213358)"><g><path d="M 7.484375 0 L 5.6875 -2.953125 C 5.59375 -2.941406 5.445312 -2.9375 5.25 -2.9375 L 2.9375 -2.9375 L 2.9375 0 L 1.28125 0 L 1.28125 -9.765625 L 5.25 -9.765625 C 6.488281 -9.765625 7.453125 -9.472656 8.140625 -8.890625 C 8.835938 -8.304688 9.1875 -7.488281 9.1875 -6.4375 C 9.1875 -5.65625 9.007812 -4.992188 8.65625 -4.453125 C 8.3125 -3.910156 7.8125 -3.515625 7.15625 -3.265625 L 9.34375 0 Z M 2.9375 -4.421875 L 5.25 -4.421875 C 6.832031 -4.421875 7.625 -5.078125 7.625 -6.390625 C 7.625 -7.648438 6.832031 -8.28125 5.25 -8.28125 L 2.9375 -8.28125 Z M 2.9375 -4.421875 "/></g></g></g><g fill="#004aad" fill-opacity="1"><g transform="translate(146.290174, 108.213358)"><g><path d="M 7.59375 -2.203125 L 2.671875 -2.203125 L 1.734375 0 L 0.015625 0 L 4.328125 -9.765625 L 6.015625 -9.765625 L 10.28125 0 L 8.53125 0 Z M 6.96875 -3.671875 L 5.125 -8.015625 L 3.28125 -3.671875 Z M 6.96875 -3.671875 "/></g></g></g><g fill="#004aad" fill-opacity="1"><g transform="translate(167.751195, 108.213358)"><g><path d="M 5.890625 -9.765625 L 5.890625 -3.015625 C 5.890625 -2.035156 5.617188 -1.273438 5.078125 -0.734375 C 4.535156 -0.203125 3.789062 0.0625 2.84375 0.0625 C 1.6875 0.0625 0.726562 -0.40625 -0.03125 -1.34375 L 0.75 -2.59375 C 1.414062 -1.875 2.109375 -1.515625 2.828125 -1.515625 C 3.273438 -1.515625 3.617188 -1.644531 3.859375 -1.90625 C 4.109375 -2.175781 4.234375 -2.5625 4.234375 -3.0625 L 4.234375 -8.28125 L 0.84375 -8.28125 L 0.84375 -9.765625 Z M 5.890625 -9.765625 "/></g></g></g><g fill="#004aad" fill-opacity="1"><g transform="translate(185.87961, 108.213358)"><g/></g></g><g fill="#004aad" fill-opacity="1"><g transform="translate(200.647541, 108.213358)"><g><path d="M 4.5 -9.84375 C 5.757812 -9.84375 6.894531 -9.503906 7.90625 -8.828125 L 7.234375 -7.375 C 6.234375 -7.976562 5.28125 -8.28125 4.375 -8.28125 C 3.875 -8.28125 3.484375 -8.191406 3.203125 -8.015625 C 2.921875 -7.847656 2.78125 -7.597656 2.78125 -7.265625 C 2.78125 -6.941406 2.910156 -6.664062 3.171875 -6.4375 C 3.429688 -6.207031 3.753906 -6.039062 4.140625 -5.9375 C 4.535156 -5.832031 4.957031 -5.695312 5.40625 -5.53125 C 5.863281 -5.363281 6.285156 -5.191406 6.671875 -5.015625 C 7.066406 -4.835938 7.390625 -4.554688 7.640625 -4.171875 C 7.898438 -3.785156 8.03125 -3.316406 8.03125 -2.765625 C 8.03125 -1.910156 7.6875 -1.222656 7 -0.703125 C 6.320312 -0.191406 5.441406 0.0625 4.359375 0.0625 C 3.609375 0.0625 2.882812 -0.078125 2.1875 -0.359375 C 1.488281 -0.640625 0.878906 -1.019531 0.359375 -1.5 L 1.078125 -2.921875 C 1.566406 -2.460938 2.109375 -2.109375 2.703125 -1.859375 C 3.296875 -1.617188 3.851562 -1.5 4.375 -1.5 C 4.957031 -1.5 5.40625 -1.601562 5.71875 -1.8125 C 6.039062 -2.019531 6.203125 -2.304688 6.203125 -2.671875 C 6.203125 -3.015625 6.070312 -3.296875 5.8125 -3.515625 C 5.550781 -3.742188 5.222656 -3.910156 4.828125 -4.015625 C 4.441406 -4.128906 4.019531 -4.257812 3.5625 -4.40625 C 3.113281 -4.5625 2.691406 -4.722656 2.296875 -4.890625 C 1.910156 -5.066406 1.585938 -5.347656 1.328125 -5.734375 C 1.066406 -6.117188 0.9375 -6.578125 0.9375 -7.109375 C 0.9375 -7.941406 1.257812 -8.601562 1.90625 -9.09375 C 2.5625 -9.59375 3.425781 -9.84375 4.5 -9.84375 Z M 4.5 -9.84375 "/></g></g></g><g fill="#004aad" fill-opacity="1"><g transform="translate(220.491058, 108.213358)"><g><path d="M 9.75 0 L 8.109375 0 L 8.109375 -4.046875 L 2.9375 -4.046875 L 2.9375 0 L 1.28125 0 L 1.28125 -9.765625 L 2.9375 -9.765625 L 2.9375 -5.53125 L 8.109375 -5.53125 L 8.109375 -9.765625 L 9.75 -9.765625 Z M 9.75 0 "/></g></g></g><g fill="#004aad" fill-opacity="1"><g transform="translate(242.69111, 108.213358)"><g><path d="M 7.59375 -2.203125 L 2.671875 -2.203125 L 1.734375 0 L 0.015625 0 L 4.328125 -9.765625 L 6.015625 -9.765625 L 10.28125 0 L 8.53125 0 Z M 6.96875 -3.671875 L 5.125 -8.015625 L 3.28125 -3.671875 Z M 6.96875 -3.671875 "/></g></g></g><g fill="#004aad" fill-opacity="1"><g transform="translate(264.152144, 108.213358)"><g><path d="M 7.484375 0 L 5.6875 -2.953125 C 5.59375 -2.941406 5.445312 -2.9375 5.25 -2.9375 L 2.9375 -2.9375 L 2.9375 0 L 1.28125 0 L 1.28125 -9.765625 L 5.25 -9.765625 C 6.488281 -9.765625 7.453125 -9.472656 8.140625 -8.890625 C 8.835938 -8.304688 9.1875 -7.488281 9.1875 -6.4375 C 9.1875 -5.65625 9.007812 -4.992188 8.65625 -4.453125 C 8.3125 -3.910156 7.8125 -3.515625 7.15625 -3.265625 L 9.34375 0 Z M 2.9375 -4.421875 L 5.25 -4.421875 C 6.832031 -4.421875 7.625 -5.078125 7.625 -6.390625 C 7.625 -7.648438 6.832031 -8.28125 5.25 -8.28125 L 2.9375 -8.28125 Z M 2.9375 -4.421875 "/></g></g></g><g fill="#004aad" fill-opacity="1"><g transform="translate(285.404002, 108.213358)"><g><path d="M 11.609375 0 L 10.09375 0 L 10.078125 -7.296875 L 6.984375 -1.015625 L 5.921875 -1.015625 L 2.828125 -7.296875 L 2.828125 0 L 1.28125 0 L 1.28125 -9.765625 L 3.234375 -9.765625 L 6.453125 -3.28125 L 9.671875 -9.765625 L 11.609375 -9.765625 Z M 11.609375 0 "/></g></g></g><g fill="#004aad" fill-opacity="1"><g transform="translate(309.472537, 108.213358)"><g><path d="M 7.59375 -2.203125 L 2.671875 -2.203125 L 1.734375 0 L 0.015625 0 L 4.328125 -9.765625 L 6.015625 -9.765625 L 10.28125 0 L 8.53125 0 Z M 6.96875 -3.671875 L 5.125 -8.015625 L 3.28125 -3.671875 Z M 6.96875 -3.671875 "/></g></g></g></svg>